<?xml version="1.0" encoding="utf-8"?>
<!-- Generator: Adobe Illustrator 19.2.1, SVG Export Plug-In . SVG Version: 6.00 Build 0)  -->
<svg version="1.1" id="Ebene_1" xmlns="http://www.w3.org/2000/svg" xmlns:xlink="http://www.w3.org/1999/xlink" x="0px" y="0px"
	 viewBox="0 0 127 71.6" style="enable-background:new 0 0 127 71.6;" xml:space="preserve">
<style type="text/css">
	.st0{clip-path:url(#SVGID_2_);fill:#FFFFFF;}
</style>
<g>
	<defs>
		<rect id="SVGID_1_" x="-0.3" y="-0.2" width="125.9" height="85"/>
	</defs>
	<clipPath id="SVGID_2_">
		<use xlink:href="#SVGID_1_"  style="overflow:visible;"/>
	</clipPath>
	<path class="st0" d="M92.2,63.6H88v4.1h4.2V63.6z M32.4,33.7c-2.4-3.1-4-6.9-4.5-10.9H4.8c-2.8,0-5,2.3-5,5c0,2.8,2.3,5.1,5,5.1
		h15.7l-19.8,27c-0.7,0.9-1.1,2-1.1,3.1c0,2.8,2.3,5.1,5.1,5.1h26c2.8,0,5-2.3,5-5.1c0-2.8-2.3-5-5-5H14.7L32.4,33.7z M50.8,7.7
		c0-0.8-0.7-1.5-1.5-1.5c0,0-0.1,0-0.1,0c-5.5,0.2-10.4,4-12,9.5c0,0,0,0.1,0,0.2c0,0.1-0.1,0.2-0.1,0.3l0,0.1c0,0,0,0.1,0,0.1
		c0,0.8,0.7,1.5,1.5,1.5c0.6,0,1.2-0.4,1.4-1l0,0c1.1-4.4,5-7.4,9.3-7.6c0,0,0,0,0.1,0c0,0,0.1,0,0.1,0c0,0,0,0,0,0l0,0
		C50.2,9,50.8,8.4,50.8,7.7 M67.7,23.6c-2.1,9.3-11.4,15-20.6,12.9c-9.3-2.1-15-11.4-12.9-20.7c2.1-9.3,11.4-15,20.7-12.9
		C64,5.1,69.8,14.3,67.7,23.6 M70.9,19.7c0-11-8.9-20-20-20c-11,0-20,8.9-20,20c0,9.2,6.2,16.9,14.6,19.2v23.8c0,3,2.4,5.4,5.4,5.4
		c3,0,5.3-2.4,5.3-5.4V39C64.7,36.6,70.9,28.9,70.9,19.7 M91.5,37.2c0,2-1.2,4.2-4.7,4.2H76.6v-8.6h10.3
		C90.5,32.8,91.5,35.5,91.5,37.2 M102.2,37.2c0-4.1-1.4-7.6-4-10.2c-2.9-2.8-7-4.2-12.4-4.2H73.9c-0.8,5.7-3.6,10.8-7.8,14.4v25.6
		c0,2.9,2.4,5.3,5.3,5.3c2.9,0,5.3-2.4,5.3-5.3V51.4h9.2C96,51.4,102.2,46.1,102.2,37.2 M98.2,61.9c-0.2-0.7-0.2-1.3-0.2-2
		c0-1.2,0.1-2.2,0.4-2.9c0.3-0.7,0.6-1.3,1.1-1.7c0.4-0.4,0.9-0.7,1.4-0.9c0.5-0.2,1-0.2,1.4-0.2c1,0,1.8,0.3,2.4,0.7
		c0.6,0.5,1,1.2,1.2,2.2h3.5c-0.1-1-0.3-1.8-0.7-2.5c-0.4-0.7-0.9-1.3-1.6-1.8c-0.6-0.5-1.4-0.8-2.2-1.1c-0.8-0.2-1.7-0.4-2.6-0.4
		c-1.3,0-2.4,0.2-3.4,0.7c-1,0.4-1.8,1-2.4,1.8c-0.7,0.8-1.1,1.7-1.5,2.7c-0.3,1-0.5,2.2-0.5,3.3c0,1.2,0.2,2.2,0.5,3.2
		c0.3,1,0.8,1.9,1.5,2.6c0.7,0.7,1.5,1.3,2.4,1.7c0.9,0.4,2,0.6,3.3,0.6c2,0,3.7-0.5,4.9-1.6c1.2-1.1,2-2.7,2.3-4.7h-3.5
		c-0.2,1.1-0.6,2-1.2,2.7c-0.7,0.6-1.5,0.9-2.5,0.9c-0.8,0-1.4-0.2-1.9-0.5c-0.5-0.3-1-0.7-1.3-1.2C98.6,63.1,98.3,62.6,98.2,61.9
		 M125.6,67.7V56.8c0-1.8-0.5-3.1-1.5-4c-1-0.9-2.4-1.3-4.1-1.3c-1,0-2,0.2-2.8,0.7c-0.8,0.5-1.5,1.1-1.9,1.8h-0.1v-8.1h-3.5v21.8
		h3.5v-9.3c0-0.6,0.1-1.1,0.3-1.6c0.2-0.5,0.4-1,0.8-1.3c0.3-0.4,0.7-0.7,1.2-0.9c0.5-0.2,1-0.3,1.6-0.3c1,0,1.8,0.3,2.3,0.8
		c0.5,0.6,0.8,1.5,0.8,2.7v9.9H125.6z"/>
</g>
</svg>
