<?xml version="1.0" encoding="utf-8"?>
<!-- Generator: Adobe Illustrator 19.2.1, SVG Export Plug-In . SVG Version: 6.00 Build 0)  -->
<svg version="1.1" id="Ebene_1" xmlns="http://www.w3.org/2000/svg" xmlns:xlink="http://www.w3.org/1999/xlink" x="0px" y="0px"
	 viewBox="0 0 60 60" style="enable-background:new 0 0 60 60;" xml:space="preserve">
<style type="text/css">
	.st0{clip-path:url(#SVGID_2_);fill:#FFFFFF;}
</style>
<g>
	<defs>
		<rect id="SVGID_1_" x="-23.3" y="-1.8" width="125.9" height="85"/>
	</defs>
	<clipPath id="SVGID_2_">
		<use xlink:href="#SVGID_1_"  style="overflow:visible;"/>
	</clipPath>
	<path class="st0" d="M46.4,13.7c0.6-0.6,0.6-1.5,0-2.1c0,0,0,0-0.1-0.1C42.3,7.8,36.2,7,31.2,9.8c-0.1,0-0.1,0.1-0.1,0.1
		c-0.1,0.1-0.2,0.1-0.2,0.1l-0.1,0c0,0,0,0-0.1,0.1c-0.6,0.6-0.6,1.5,0,2.1c0.4,0.4,1.1,0.5,1.6,0.3l0,0c3.9-2.3,8.8-1.7,12,1.2
		c0,0,0,0,0,0c0,0,0,0,0.1,0.1c0,0,0,0,0,0v0C45,14.3,45.9,14.2,46.4,13.7 M47.1,36.9c-8.1,5-18.7,2.6-23.7-5.5
		c-5-8.1-2.6-18.7,5.5-23.7c8.1-5,18.7-2.6,23.7,5.5C57.6,21.3,55.1,31.9,47.1,36.9 M52.1,36.4c7.8-7.8,7.8-20.4,0-28.2
		c-7.8-7.8-20.4-7.8-28.2,0c-6.5,6.5-7.6,16.3-3.3,23.9L3.8,48.9c-2.1,2.1-2.1,5.5,0,7.6c2.1,2.1,5.4,2,7.5-0.1l16.8-16.8
		C35.7,44,45.6,42.9,52.1,36.4"/>
</g>
</svg>
